<mxfile host="Electron" agent="Mozilla/5.0 (Windows NT 10.0; Win64; x64) AppleWebKit/537.36 (KHTML, like Gecko) draw.io/28.1.2 Chrome/138.0.7204.243 Electron/37.4.0 Safari/537.36" version="28.1.2">
  <diagram name="Trang-1" id="Ta-o3EtVOvjw3HXOiDav">
    <mxGraphModel dx="1177" dy="729" grid="1" gridSize="10" guides="1" tooltips="1" connect="1" arrows="1" fold="1" page="1" pageScale="1" pageWidth="827" pageHeight="1169" math="0" shadow="0">
      <root>
        <mxCell id="0" />
        <mxCell id="1" parent="0" />
        <mxCell id="eBudwKJIuj9_EMLO4E53-21" value="isa" style="edgeStyle=orthogonalEdgeStyle;rounded=0;orthogonalLoop=1;jettySize=auto;html=1;exitX=1;exitY=0.5;exitDx=0;exitDy=0;endArrow=block;endFill=0;" edge="1" parent="1" source="eBudwKJIuj9_EMLO4E53-5" target="eBudwKJIuj9_EMLO4E53-16">
          <mxGeometry relative="1" as="geometry">
            <Array as="points">
              <mxPoint x="180" y="210" />
            </Array>
          </mxGeometry>
        </mxCell>
        <mxCell id="eBudwKJIuj9_EMLO4E53-5" value="&amp;lt;&amp;lt;Entity&amp;gt;&amp;gt;&lt;div&gt;NVTieptan&lt;/div&gt;" style="swimlane;fontStyle=0;childLayout=stackLayout;horizontal=1;startSize=26;fillColor=none;horizontalStack=0;resizeParent=1;resizeParentMax=0;resizeLast=0;collapsible=1;marginBottom=0;whiteSpace=wrap;html=1;" vertex="1" parent="1">
          <mxGeometry x="40" y="190" width="140" height="32" as="geometry" />
        </mxCell>
        <mxCell id="eBudwKJIuj9_EMLO4E53-22" value="isa" style="edgeStyle=orthogonalEdgeStyle;rounded=0;orthogonalLoop=1;jettySize=auto;html=1;exitX=1;exitY=0.5;exitDx=0;exitDy=0;entryX=0;entryY=0.5;entryDx=0;entryDy=0;endArrow=block;endFill=0;" edge="1" parent="1" source="eBudwKJIuj9_EMLO4E53-9" target="eBudwKJIuj9_EMLO4E53-16">
          <mxGeometry relative="1" as="geometry">
            <Array as="points">
              <mxPoint x="240" y="275" />
              <mxPoint x="240" y="275" />
            </Array>
          </mxGeometry>
        </mxCell>
        <mxCell id="eBudwKJIuj9_EMLO4E53-9" value="&amp;lt;&amp;lt;Entity&amp;gt;&amp;gt;&lt;div&gt;NVThuthu&lt;/div&gt;" style="swimlane;fontStyle=0;childLayout=stackLayout;horizontal=1;startSize=26;fillColor=none;horizontalStack=0;resizeParent=1;resizeParentMax=0;resizeLast=0;collapsible=1;marginBottom=0;whiteSpace=wrap;html=1;" vertex="1" parent="1">
          <mxGeometry x="40" y="259" width="140" height="32" as="geometry" />
        </mxCell>
        <mxCell id="eBudwKJIuj9_EMLO4E53-10" value="&amp;lt;&amp;lt;Entity&amp;gt;&amp;gt;&lt;div&gt;NVNhaplieu&lt;/div&gt;" style="swimlane;fontStyle=0;childLayout=stackLayout;horizontal=1;startSize=26;fillColor=none;horizontalStack=0;resizeParent=1;resizeParentMax=0;resizeLast=0;collapsible=1;marginBottom=0;whiteSpace=wrap;html=1;" vertex="1" parent="1">
          <mxGeometry x="40" y="310" width="140" height="32" as="geometry" />
        </mxCell>
        <mxCell id="eBudwKJIuj9_EMLO4E53-15" value="&amp;lt;&amp;lt;entity&amp;gt;&amp;gt;&lt;div&gt;Docgia&lt;/div&gt;&lt;div&gt;&lt;br&gt;&lt;/div&gt;" style="swimlane;fontStyle=1;align=center;verticalAlign=top;childLayout=stackLayout;horizontal=1;startSize=38;horizontalStack=0;resizeParent=1;resizeParentMax=0;resizeLast=0;collapsible=1;marginBottom=0;whiteSpace=wrap;html=1;rounded=0;strokeWidth=1;perimeterSpacing=4;" vertex="1" parent="1">
          <mxGeometry x="320" y="170" width="160" height="180" as="geometry">
            <mxRectangle x="320" y="240" width="100" height="30" as="alternateBounds" />
          </mxGeometry>
        </mxCell>
        <mxCell id="eBudwKJIuj9_EMLO4E53-16" value="+&amp;lt;&amp;lt;PK&amp;gt;&amp;gt;SoCMND: string&lt;div&gt;-Ho: string&lt;/div&gt;&lt;div&gt;- Ten:string&lt;/div&gt;&lt;div&gt;-Diachi: string&lt;/div&gt;&lt;div&gt;-Noisinh: string&lt;/div&gt;&lt;div&gt;-Sodienthoai: string&lt;/div&gt;&lt;div&gt;-Ngaysinh: string&lt;/div&gt;&lt;div&gt;-email: string&lt;/div&gt;" style="text;strokeColor=none;fillColor=none;align=left;verticalAlign=top;spacingLeft=4;spacingRight=4;overflow=hidden;rotatable=0;points=[[0,0.5],[1,0.5]];portConstraint=eastwest;whiteSpace=wrap;html=1;" vertex="1" parent="eBudwKJIuj9_EMLO4E53-15">
          <mxGeometry y="38" width="160" height="134" as="geometry" />
        </mxCell>
        <mxCell id="eBudwKJIuj9_EMLO4E53-17" value="" style="line;strokeWidth=1;fillColor=none;align=left;verticalAlign=middle;spacingTop=-1;spacingLeft=3;spacingRight=3;rotatable=0;labelPosition=right;points=[];portConstraint=eastwest;strokeColor=inherit;" vertex="1" parent="eBudwKJIuj9_EMLO4E53-15">
          <mxGeometry y="172" width="160" height="8" as="geometry" />
        </mxCell>
        <mxCell id="eBudwKJIuj9_EMLO4E53-23" value="isa" style="edgeStyle=orthogonalEdgeStyle;rounded=0;orthogonalLoop=1;jettySize=auto;html=1;exitX=1;exitY=0.5;exitDx=0;exitDy=0;endArrow=block;endFill=0;" edge="1" parent="1" source="eBudwKJIuj9_EMLO4E53-10" target="eBudwKJIuj9_EMLO4E53-16">
          <mxGeometry relative="1" as="geometry">
            <mxPoint x="299" y="318" as="targetPoint" />
            <Array as="points">
              <mxPoint x="280" y="326" />
              <mxPoint x="280" y="326" />
            </Array>
          </mxGeometry>
        </mxCell>
        <mxCell id="eBudwKJIuj9_EMLO4E53-24" value="&amp;lt;&amp;lt;entity&amp;gt;&amp;gt;&lt;div&gt;Phieumuon&lt;/div&gt;" style="swimlane;fontStyle=1;align=center;verticalAlign=top;childLayout=stackLayout;horizontal=1;startSize=38;horizontalStack=0;resizeParent=1;resizeParentMax=0;resizeLast=0;collapsible=1;marginBottom=0;whiteSpace=wrap;html=1;rounded=0;strokeWidth=1;perimeterSpacing=4;" vertex="1" parent="1">
          <mxGeometry x="600" y="170" width="160" height="98" as="geometry">
            <mxRectangle x="320" y="240" width="100" height="30" as="alternateBounds" />
          </mxGeometry>
        </mxCell>
        <mxCell id="eBudwKJIuj9_EMLO4E53-25" value="+&amp;lt;&amp;lt;PK&amp;gt;&amp;gt;MaPM: string&lt;div&gt;-Ngaymuon: string&lt;/div&gt;&lt;div&gt;-Ngaytra: string&lt;/div&gt;" style="text;strokeColor=none;fillColor=none;align=left;verticalAlign=top;spacingLeft=4;spacingRight=4;overflow=hidden;rotatable=0;points=[[0,0.5],[1,0.5]];portConstraint=eastwest;whiteSpace=wrap;html=1;" vertex="1" parent="eBudwKJIuj9_EMLO4E53-24">
          <mxGeometry y="38" width="160" height="52" as="geometry" />
        </mxCell>
        <mxCell id="eBudwKJIuj9_EMLO4E53-26" value="" style="line;strokeWidth=1;fillColor=none;align=left;verticalAlign=middle;spacingTop=-1;spacingLeft=3;spacingRight=3;rotatable=0;labelPosition=right;points=[];portConstraint=eastwest;strokeColor=inherit;" vertex="1" parent="eBudwKJIuj9_EMLO4E53-24">
          <mxGeometry y="90" width="160" height="8" as="geometry" />
        </mxCell>
        <mxCell id="eBudwKJIuj9_EMLO4E53-27" value="" style="endArrow=none;html=1;rounded=0;entryX=0;entryY=0.5;entryDx=0;entryDy=0;exitX=0.994;exitY=0.198;exitDx=0;exitDy=0;exitPerimeter=0;" edge="1" parent="1" source="eBudwKJIuj9_EMLO4E53-16" target="eBudwKJIuj9_EMLO4E53-25">
          <mxGeometry relative="1" as="geometry">
            <mxPoint x="440" y="120" as="sourcePoint" />
            <mxPoint x="600" y="120" as="targetPoint" />
          </mxGeometry>
        </mxCell>
        <mxCell id="eBudwKJIuj9_EMLO4E53-28" value="1" style="resizable=0;html=1;whiteSpace=wrap;align=left;verticalAlign=bottom;" connectable="0" vertex="1" parent="eBudwKJIuj9_EMLO4E53-27">
          <mxGeometry x="-1" relative="1" as="geometry" />
        </mxCell>
        <mxCell id="eBudwKJIuj9_EMLO4E53-29" value="*" style="resizable=0;html=1;whiteSpace=wrap;align=right;verticalAlign=bottom;" connectable="0" vertex="1" parent="eBudwKJIuj9_EMLO4E53-27">
          <mxGeometry x="1" relative="1" as="geometry" />
        </mxCell>
        <mxCell id="eBudwKJIuj9_EMLO4E53-30" value="muon" style="edgeLabel;html=1;align=center;verticalAlign=middle;resizable=0;points=[];" vertex="1" connectable="0" parent="eBudwKJIuj9_EMLO4E53-27">
          <mxGeometry x="-0.0639" y="-1" relative="1" as="geometry">
            <mxPoint x="4" y="15" as="offset" />
          </mxGeometry>
        </mxCell>
        <mxCell id="eBudwKJIuj9_EMLO4E53-31" value="&amp;lt;&amp;lt;Entity&amp;gt;&amp;gt;&lt;div&gt;CTPhieumuon&lt;/div&gt;" style="swimlane;fontStyle=0;childLayout=stackLayout;horizontal=1;startSize=26;fillColor=none;horizontalStack=0;resizeParent=1;resizeParentMax=0;resizeLast=0;collapsible=1;marginBottom=0;whiteSpace=wrap;html=1;" vertex="1" parent="1">
          <mxGeometry x="610" y="440" width="140" height="32" as="geometry" />
        </mxCell>
        <mxCell id="eBudwKJIuj9_EMLO4E53-35" value="" style="endArrow=diamondThin;endFill=0;endSize=24;html=1;rounded=0;exitX=0.5;exitY=0;exitDx=0;exitDy=0;entryX=0.5;entryY=1.25;entryDx=0;entryDy=0;entryPerimeter=0;" edge="1" parent="1" source="eBudwKJIuj9_EMLO4E53-31" target="eBudwKJIuj9_EMLO4E53-26">
          <mxGeometry width="160" relative="1" as="geometry">
            <mxPoint x="390" y="490" as="sourcePoint" />
            <mxPoint x="680" y="350" as="targetPoint" />
          </mxGeometry>
        </mxCell>
        <mxCell id="eBudwKJIuj9_EMLO4E53-37" value="1" style="edgeLabel;html=1;align=center;verticalAlign=middle;resizable=0;points=[];" vertex="1" connectable="0" parent="eBudwKJIuj9_EMLO4E53-35">
          <mxGeometry x="0.481" y="3" relative="1" as="geometry">
            <mxPoint x="23" y="-93" as="offset" />
          </mxGeometry>
        </mxCell>
        <mxCell id="eBudwKJIuj9_EMLO4E53-38" value="1...*" style="edgeLabel;html=1;align=center;verticalAlign=middle;resizable=0;points=[];" vertex="1" connectable="0" parent="eBudwKJIuj9_EMLO4E53-35">
          <mxGeometry x="-0.6356" y="1" relative="1" as="geometry">
            <mxPoint x="11" y="21" as="offset" />
          </mxGeometry>
        </mxCell>
        <mxCell id="eBudwKJIuj9_EMLO4E53-39" value="hasa" style="edgeLabel;html=1;align=center;verticalAlign=middle;resizable=0;points=[];" vertex="1" connectable="0" parent="eBudwKJIuj9_EMLO4E53-35">
          <mxGeometry x="0.0311" y="-1" relative="1" as="geometry">
            <mxPoint x="-21" y="-3" as="offset" />
          </mxGeometry>
        </mxCell>
        <mxCell id="eBudwKJIuj9_EMLO4E53-73" value="1" style="edgeLabel;html=1;align=center;verticalAlign=middle;resizable=0;points=[];" vertex="1" connectable="0" parent="eBudwKJIuj9_EMLO4E53-35">
          <mxGeometry x="0.6067" y="1" relative="1" as="geometry">
            <mxPoint x="11" y="-23" as="offset" />
          </mxGeometry>
        </mxCell>
        <mxCell id="eBudwKJIuj9_EMLO4E53-83" value="isa" style="edgeStyle=orthogonalEdgeStyle;rounded=0;orthogonalLoop=1;jettySize=auto;html=1;exitX=0.5;exitY=0;exitDx=0;exitDy=0;endArrow=block;endFill=0;" edge="1" parent="1" source="eBudwKJIuj9_EMLO4E53-40">
          <mxGeometry x="-0.0056" y="-9" relative="1" as="geometry">
            <mxPoint x="400" y="660" as="targetPoint" />
            <mxPoint x="1" as="offset" />
          </mxGeometry>
        </mxCell>
        <mxCell id="eBudwKJIuj9_EMLO4E53-40" value="&amp;lt;&amp;lt;Entity&amp;gt;&amp;gt;&lt;div&gt;Sach&lt;/div&gt;" style="swimlane;fontStyle=0;childLayout=stackLayout;horizontal=1;startSize=26;fillColor=none;horizontalStack=0;resizeParent=1;resizeParentMax=0;resizeLast=0;collapsible=1;marginBottom=0;whiteSpace=wrap;html=1;" vertex="1" parent="1">
          <mxGeometry x="330" y="750" width="140" height="32" as="geometry" />
        </mxCell>
        <mxCell id="eBudwKJIuj9_EMLO4E53-84" value="duoc viet" style="edgeStyle=orthogonalEdgeStyle;rounded=0;orthogonalLoop=1;jettySize=auto;html=1;exitX=0.5;exitY=0;exitDx=0;exitDy=0;entryX=0.5;entryY=1;entryDx=0;entryDy=0;endArrow=none;endFill=0;" edge="1" parent="1" source="eBudwKJIuj9_EMLO4E53-41" target="eBudwKJIuj9_EMLO4E53-40">
          <mxGeometry x="-0.0787" y="30" relative="1" as="geometry">
            <mxPoint as="offset" />
          </mxGeometry>
        </mxCell>
        <mxCell id="eBudwKJIuj9_EMLO4E53-85" value="1" style="edgeLabel;html=1;align=center;verticalAlign=middle;resizable=0;points=[];" vertex="1" connectable="0" parent="eBudwKJIuj9_EMLO4E53-84">
          <mxGeometry x="0.6351" y="-1" relative="1" as="geometry">
            <mxPoint x="9" as="offset" />
          </mxGeometry>
        </mxCell>
        <mxCell id="eBudwKJIuj9_EMLO4E53-86" value="0...*" style="edgeLabel;html=1;align=center;verticalAlign=middle;resizable=0;points=[];" vertex="1" connectable="0" parent="eBudwKJIuj9_EMLO4E53-84">
          <mxGeometry x="-0.6062" relative="1" as="geometry">
            <mxPoint x="14" as="offset" />
          </mxGeometry>
        </mxCell>
        <mxCell id="eBudwKJIuj9_EMLO4E53-41" value="Viet" style="swimlane;fontStyle=0;childLayout=stackLayout;horizontal=1;startSize=26;fillColor=none;horizontalStack=0;resizeParent=1;resizeParentMax=0;resizeLast=0;collapsible=1;marginBottom=0;whiteSpace=wrap;html=1;" vertex="1" parent="1">
          <mxGeometry x="330" y="871" width="140" height="50" as="geometry" />
        </mxCell>
        <mxCell id="eBudwKJIuj9_EMLO4E53-42" value="&amp;lt;&amp;lt;Entity&amp;gt;&amp;gt;&lt;div&gt;CTPhieudatmuon&lt;/div&gt;" style="swimlane;fontStyle=0;childLayout=stackLayout;horizontal=1;startSize=26;fillColor=none;horizontalStack=0;resizeParent=1;resizeParentMax=0;resizeLast=0;collapsible=1;marginBottom=0;whiteSpace=wrap;html=1;" vertex="1" parent="1">
          <mxGeometry x="330" y="440" width="140" height="32" as="geometry" />
        </mxCell>
        <mxCell id="eBudwKJIuj9_EMLO4E53-43" value="&amp;lt;&amp;lt;entity&amp;gt;&amp;gt;&lt;div&gt;Phieudatmuon&lt;/div&gt;" style="swimlane;fontStyle=1;align=center;verticalAlign=top;childLayout=stackLayout;horizontal=1;startSize=38;horizontalStack=0;resizeParent=1;resizeParentMax=0;resizeLast=0;collapsible=1;marginBottom=0;whiteSpace=wrap;html=1;rounded=0;strokeWidth=1;perimeterSpacing=4;" vertex="1" parent="1">
          <mxGeometry x="40" y="400" width="160" height="98" as="geometry">
            <mxRectangle x="320" y="240" width="100" height="30" as="alternateBounds" />
          </mxGeometry>
        </mxCell>
        <mxCell id="eBudwKJIuj9_EMLO4E53-44" value="+&amp;lt;&amp;lt;PK&amp;gt;&amp;gt;MaPDM: string&lt;div&gt;-NgayDM: string&lt;/div&gt;&lt;div&gt;-NgayXL: string&lt;/div&gt;" style="text;strokeColor=none;fillColor=none;align=left;verticalAlign=top;spacingLeft=4;spacingRight=4;overflow=hidden;rotatable=0;points=[[0,0.5],[1,0.5]];portConstraint=eastwest;whiteSpace=wrap;html=1;" vertex="1" parent="eBudwKJIuj9_EMLO4E53-43">
          <mxGeometry y="38" width="160" height="52" as="geometry" />
        </mxCell>
        <mxCell id="eBudwKJIuj9_EMLO4E53-45" value="" style="line;strokeWidth=1;fillColor=none;align=left;verticalAlign=middle;spacingTop=-1;spacingLeft=3;spacingRight=3;rotatable=0;labelPosition=right;points=[];portConstraint=eastwest;strokeColor=inherit;" vertex="1" parent="eBudwKJIuj9_EMLO4E53-43">
          <mxGeometry y="90" width="160" height="8" as="geometry" />
        </mxCell>
        <mxCell id="eBudwKJIuj9_EMLO4E53-95" value="thuoc" style="edgeStyle=orthogonalEdgeStyle;rounded=0;orthogonalLoop=1;jettySize=auto;html=1;exitX=0.506;exitY=0.068;exitDx=0;exitDy=0;exitPerimeter=0;endArrow=none;endFill=0;" edge="1" parent="1" source="eBudwKJIuj9_EMLO4E53-46">
          <mxGeometry x="0.0578" y="20" relative="1" as="geometry">
            <mxPoint x="120" y="620" as="targetPoint" />
            <Array as="points">
              <mxPoint x="121" y="671" />
              <mxPoint x="120" y="671" />
            </Array>
            <mxPoint as="offset" />
          </mxGeometry>
        </mxCell>
        <mxCell id="eBudwKJIuj9_EMLO4E53-96" value="1" style="edgeLabel;html=1;align=center;verticalAlign=middle;resizable=0;points=[];" vertex="1" connectable="0" parent="eBudwKJIuj9_EMLO4E53-95">
          <mxGeometry x="0.5245" y="1" relative="1" as="geometry">
            <mxPoint x="11" y="65" as="offset" />
          </mxGeometry>
        </mxCell>
        <mxCell id="eBudwKJIuj9_EMLO4E53-97" value="*" style="edgeLabel;html=1;align=center;verticalAlign=middle;resizable=0;points=[];" vertex="1" connectable="0" parent="eBudwKJIuj9_EMLO4E53-95">
          <mxGeometry x="-0.5772" y="-1" relative="1" as="geometry">
            <mxPoint x="8" y="-73" as="offset" />
          </mxGeometry>
        </mxCell>
        <mxCell id="eBudwKJIuj9_EMLO4E53-46" value="&amp;lt;&amp;lt;entity&amp;gt;&amp;gt;&lt;div&gt;Loaimultimedia&lt;/div&gt;" style="swimlane;fontStyle=1;align=center;verticalAlign=top;childLayout=stackLayout;horizontal=1;startSize=38;horizontalStack=0;resizeParent=1;resizeParentMax=0;resizeLast=0;collapsible=1;marginBottom=0;whiteSpace=wrap;html=1;rounded=0;strokeWidth=1;perimeterSpacing=4;" vertex="1" parent="1">
          <mxGeometry x="40" y="722" width="160" height="98" as="geometry">
            <mxRectangle x="320" y="240" width="100" height="30" as="alternateBounds" />
          </mxGeometry>
        </mxCell>
        <mxCell id="eBudwKJIuj9_EMLO4E53-47" value="+&amp;lt;&amp;lt;PK&amp;gt;&amp;gt;MaPM: string&lt;div&gt;-Ngaymuon: string&lt;/div&gt;&lt;div&gt;-Ngaytra: string&lt;/div&gt;" style="text;strokeColor=none;fillColor=none;align=left;verticalAlign=top;spacingLeft=4;spacingRight=4;overflow=hidden;rotatable=0;points=[[0,0.5],[1,0.5]];portConstraint=eastwest;whiteSpace=wrap;html=1;" vertex="1" parent="eBudwKJIuj9_EMLO4E53-46">
          <mxGeometry y="38" width="160" height="52" as="geometry" />
        </mxCell>
        <mxCell id="eBudwKJIuj9_EMLO4E53-48" value="" style="line;strokeWidth=1;fillColor=none;align=left;verticalAlign=middle;spacingTop=-1;spacingLeft=3;spacingRight=3;rotatable=0;labelPosition=right;points=[];portConstraint=eastwest;strokeColor=inherit;" vertex="1" parent="eBudwKJIuj9_EMLO4E53-46">
          <mxGeometry y="90" width="160" height="8" as="geometry" />
        </mxCell>
        <mxCell id="eBudwKJIuj9_EMLO4E53-92" value="thuoc" style="rounded=0;orthogonalLoop=1;jettySize=auto;html=1;exitX=0.961;exitY=0.048;exitDx=0;exitDy=0;entryX=0;entryY=1;entryDx=0;entryDy=0;endArrow=none;endFill=0;exitPerimeter=0;" edge="1" parent="1" source="eBudwKJIuj9_EMLO4E53-49" target="eBudwKJIuj9_EMLO4E53-40">
          <mxGeometry x="0.1462" y="-12" relative="1" as="geometry">
            <mxPoint as="offset" />
          </mxGeometry>
        </mxCell>
        <mxCell id="eBudwKJIuj9_EMLO4E53-93" value="1" style="edgeLabel;html=1;align=center;verticalAlign=middle;resizable=0;points=[];" vertex="1" connectable="0" parent="eBudwKJIuj9_EMLO4E53-92">
          <mxGeometry x="-0.8481" y="-2" relative="1" as="geometry">
            <mxPoint x="-9" y="-7" as="offset" />
          </mxGeometry>
        </mxCell>
        <mxCell id="eBudwKJIuj9_EMLO4E53-94" value="*" style="edgeLabel;html=1;align=center;verticalAlign=middle;resizable=0;points=[];" vertex="1" connectable="0" parent="eBudwKJIuj9_EMLO4E53-92">
          <mxGeometry x="0.7454" y="-1" relative="1" as="geometry">
            <mxPoint x="6" y="-14" as="offset" />
          </mxGeometry>
        </mxCell>
        <mxCell id="eBudwKJIuj9_EMLO4E53-49" value="&amp;lt;&amp;lt;entity&amp;gt;&amp;gt;&lt;div&gt;Theloai&lt;/div&gt;" style="swimlane;fontStyle=1;align=center;verticalAlign=top;childLayout=stackLayout;horizontal=1;startSize=38;horizontalStack=0;resizeParent=1;resizeParentMax=0;resizeLast=0;collapsible=1;marginBottom=0;whiteSpace=wrap;html=1;rounded=0;strokeWidth=1;perimeterSpacing=4;" vertex="1" parent="1">
          <mxGeometry x="40" y="871" width="160" height="88" as="geometry">
            <mxRectangle x="320" y="240" width="100" height="30" as="alternateBounds" />
          </mxGeometry>
        </mxCell>
        <mxCell id="eBudwKJIuj9_EMLO4E53-50" value="+&amp;lt;&amp;lt;PK&amp;gt;&amp;gt;MaTL: string&lt;div&gt;-TenTL: string&lt;/div&gt;" style="text;strokeColor=none;fillColor=none;align=left;verticalAlign=top;spacingLeft=4;spacingRight=4;overflow=hidden;rotatable=0;points=[[0,0.5],[1,0.5]];portConstraint=eastwest;whiteSpace=wrap;html=1;" vertex="1" parent="eBudwKJIuj9_EMLO4E53-49">
          <mxGeometry y="38" width="160" height="42" as="geometry" />
        </mxCell>
        <mxCell id="eBudwKJIuj9_EMLO4E53-51" value="" style="line;strokeWidth=1;fillColor=none;align=left;verticalAlign=middle;spacingTop=-1;spacingLeft=3;spacingRight=3;rotatable=0;labelPosition=right;points=[];portConstraint=eastwest;strokeColor=inherit;" vertex="1" parent="eBudwKJIuj9_EMLO4E53-49">
          <mxGeometry y="80" width="160" height="8" as="geometry" />
        </mxCell>
        <mxCell id="eBudwKJIuj9_EMLO4E53-89" value="viet" style="edgeStyle=orthogonalEdgeStyle;rounded=0;orthogonalLoop=1;jettySize=auto;html=1;exitX=0.497;exitY=0.04;exitDx=0;exitDy=0;entryX=0.5;entryY=1;entryDx=0;entryDy=0;endArrow=none;endFill=0;exitPerimeter=0;" edge="1" parent="1" source="eBudwKJIuj9_EMLO4E53-52" target="eBudwKJIuj9_EMLO4E53-41">
          <mxGeometry x="0.0824" y="20" relative="1" as="geometry">
            <mxPoint as="offset" />
          </mxGeometry>
        </mxCell>
        <mxCell id="eBudwKJIuj9_EMLO4E53-90" value="1" style="edgeLabel;html=1;align=center;verticalAlign=middle;resizable=0;points=[];" vertex="1" connectable="0" parent="eBudwKJIuj9_EMLO4E53-89">
          <mxGeometry x="0.8633" relative="1" as="geometry">
            <mxPoint x="10" y="73" as="offset" />
          </mxGeometry>
        </mxCell>
        <mxCell id="eBudwKJIuj9_EMLO4E53-91" value="1...*" style="edgeLabel;html=1;align=center;verticalAlign=middle;resizable=0;points=[];" vertex="1" connectable="0" parent="eBudwKJIuj9_EMLO4E53-89">
          <mxGeometry x="0.6728" y="-1" relative="1" as="geometry">
            <mxPoint x="13" as="offset" />
          </mxGeometry>
        </mxCell>
        <mxCell id="eBudwKJIuj9_EMLO4E53-52" value="&amp;lt;&amp;lt;entity&amp;gt;&amp;gt;&lt;div&gt;Tacgia&lt;/div&gt;" style="swimlane;fontStyle=1;align=center;verticalAlign=top;childLayout=stackLayout;horizontal=1;startSize=38;horizontalStack=0;resizeParent=1;resizeParentMax=0;resizeLast=0;collapsible=1;marginBottom=0;whiteSpace=wrap;html=1;rounded=0;strokeWidth=1;perimeterSpacing=4;" vertex="1" parent="1">
          <mxGeometry x="320" y="1010" width="160" height="118" as="geometry">
            <mxRectangle x="320" y="240" width="100" height="30" as="alternateBounds" />
          </mxGeometry>
        </mxCell>
        <mxCell id="eBudwKJIuj9_EMLO4E53-53" value="+&amp;lt;&amp;lt;PK&amp;gt;&amp;gt;MaTG: string&lt;div&gt;-TenTG: string&lt;/div&gt;&lt;div&gt;-HoTG: string&lt;/div&gt;&lt;div&gt;-NgaysinhTG: string&lt;/div&gt;" style="text;strokeColor=none;fillColor=none;align=left;verticalAlign=top;spacingLeft=4;spacingRight=4;overflow=hidden;rotatable=0;points=[[0,0.5],[1,0.5]];portConstraint=eastwest;whiteSpace=wrap;html=1;" vertex="1" parent="eBudwKJIuj9_EMLO4E53-52">
          <mxGeometry y="38" width="160" height="72" as="geometry" />
        </mxCell>
        <mxCell id="eBudwKJIuj9_EMLO4E53-54" value="" style="line;strokeWidth=1;fillColor=none;align=left;verticalAlign=middle;spacingTop=-1;spacingLeft=3;spacingRight=3;rotatable=0;labelPosition=right;points=[];portConstraint=eastwest;strokeColor=inherit;" vertex="1" parent="eBudwKJIuj9_EMLO4E53-52">
          <mxGeometry y="110" width="160" height="8" as="geometry" />
        </mxCell>
        <mxCell id="eBudwKJIuj9_EMLO4E53-79" value="co" style="edgeStyle=orthogonalEdgeStyle;rounded=0;orthogonalLoop=1;jettySize=auto;html=1;exitX=0.015;exitY=0.251;exitDx=0;exitDy=0;entryX=0.98;entryY=0.259;entryDx=0;entryDy=0;exitPerimeter=0;entryPerimeter=0;endArrow=none;endFill=0;" edge="1" parent="1" source="eBudwKJIuj9_EMLO4E53-55" target="eBudwKJIuj9_EMLO4E53-70">
          <mxGeometry x="0.0782" y="10" relative="1" as="geometry">
            <mxPoint x="10" y="-10" as="offset" />
          </mxGeometry>
        </mxCell>
        <mxCell id="eBudwKJIuj9_EMLO4E53-80" value="0...*" style="edgeLabel;html=1;align=center;verticalAlign=middle;resizable=0;points=[];" vertex="1" connectable="0" parent="eBudwKJIuj9_EMLO4E53-79">
          <mxGeometry x="-0.844" y="2" relative="1" as="geometry">
            <mxPoint x="-9" y="-17" as="offset" />
          </mxGeometry>
        </mxCell>
        <mxCell id="eBudwKJIuj9_EMLO4E53-81" value="1" style="edgeLabel;html=1;align=center;verticalAlign=middle;resizable=0;points=[];" vertex="1" connectable="0" parent="eBudwKJIuj9_EMLO4E53-79">
          <mxGeometry x="0.797" relative="1" as="geometry">
            <mxPoint y="-10" as="offset" />
          </mxGeometry>
        </mxCell>
        <mxCell id="eBudwKJIuj9_EMLO4E53-106" value="duoc muon" style="edgeStyle=orthogonalEdgeStyle;rounded=0;orthogonalLoop=1;jettySize=auto;html=1;entryX=0.5;entryY=1;entryDx=0;entryDy=0;exitX=0.501;exitY=0.067;exitDx=0;exitDy=0;exitPerimeter=0;endArrow=none;endFill=0;" edge="1" parent="1" source="eBudwKJIuj9_EMLO4E53-55" target="eBudwKJIuj9_EMLO4E53-31">
          <mxGeometry x="0.0875" y="30" relative="1" as="geometry">
            <mxPoint as="offset" />
          </mxGeometry>
        </mxCell>
        <mxCell id="eBudwKJIuj9_EMLO4E53-107" value="*" style="edgeLabel;html=1;align=center;verticalAlign=middle;resizable=0;points=[];" vertex="1" connectable="0" parent="eBudwKJIuj9_EMLO4E53-106">
          <mxGeometry x="0.6798" relative="1" as="geometry">
            <mxPoint x="10" y="-5" as="offset" />
          </mxGeometry>
        </mxCell>
        <mxCell id="eBudwKJIuj9_EMLO4E53-108" value="1" style="edgeLabel;html=1;align=center;verticalAlign=middle;resizable=0;points=[];" vertex="1" connectable="0" parent="eBudwKJIuj9_EMLO4E53-106">
          <mxGeometry x="-0.5855" y="-1" relative="1" as="geometry">
            <mxPoint x="9" as="offset" />
          </mxGeometry>
        </mxCell>
        <mxCell id="eBudwKJIuj9_EMLO4E53-55" value="&amp;lt;&amp;lt;entity&amp;gt;&amp;gt;&lt;div&gt;Banin&lt;/div&gt;" style="swimlane;fontStyle=1;align=center;verticalAlign=top;childLayout=stackLayout;horizontal=1;startSize=38;horizontalStack=0;resizeParent=1;resizeParentMax=0;resizeLast=0;collapsible=1;marginBottom=0;whiteSpace=wrap;html=1;rounded=0;strokeWidth=1;perimeterSpacing=4;" vertex="1" parent="1">
          <mxGeometry x="600" y="554" width="160" height="68" as="geometry">
            <mxRectangle x="320" y="240" width="100" height="30" as="alternateBounds" />
          </mxGeometry>
        </mxCell>
        <mxCell id="eBudwKJIuj9_EMLO4E53-56" value="+&amp;lt;&amp;lt;PK&amp;gt;&amp;gt;MaBI: string" style="text;strokeColor=none;fillColor=none;align=left;verticalAlign=top;spacingLeft=4;spacingRight=4;overflow=hidden;rotatable=0;points=[[0,0.5],[1,0.5]];portConstraint=eastwest;whiteSpace=wrap;html=1;" vertex="1" parent="eBudwKJIuj9_EMLO4E53-55">
          <mxGeometry y="38" width="160" height="22" as="geometry" />
        </mxCell>
        <mxCell id="eBudwKJIuj9_EMLO4E53-57" value="" style="line;strokeWidth=1;fillColor=none;align=left;verticalAlign=middle;spacingTop=-1;spacingLeft=3;spacingRight=3;rotatable=0;labelPosition=right;points=[];portConstraint=eastwest;strokeColor=inherit;" vertex="1" parent="eBudwKJIuj9_EMLO4E53-55">
          <mxGeometry y="60" width="160" height="8" as="geometry" />
        </mxCell>
        <mxCell id="eBudwKJIuj9_EMLO4E53-61" value="&amp;lt;&amp;lt;entity&amp;gt;&amp;gt;&lt;div&gt;Tapchi&lt;/div&gt;" style="swimlane;fontStyle=1;align=center;verticalAlign=top;childLayout=stackLayout;horizontal=1;startSize=38;horizontalStack=0;resizeParent=1;resizeParentMax=0;resizeLast=0;collapsible=1;marginBottom=0;whiteSpace=wrap;html=1;rounded=0;strokeWidth=1;perimeterSpacing=4;" vertex="1" parent="1">
          <mxGeometry x="600" y="680" width="160" height="88" as="geometry">
            <mxRectangle x="320" y="240" width="100" height="30" as="alternateBounds" />
          </mxGeometry>
        </mxCell>
        <mxCell id="eBudwKJIuj9_EMLO4E53-62" value="-SoTC: string&lt;div&gt;-Linhvuc: string&lt;/div&gt;" style="text;strokeColor=none;fillColor=none;align=left;verticalAlign=top;spacingLeft=4;spacingRight=4;overflow=hidden;rotatable=0;points=[[0,0.5],[1,0.5]];portConstraint=eastwest;whiteSpace=wrap;html=1;" vertex="1" parent="eBudwKJIuj9_EMLO4E53-61">
          <mxGeometry y="38" width="160" height="42" as="geometry" />
        </mxCell>
        <mxCell id="eBudwKJIuj9_EMLO4E53-63" value="" style="line;strokeWidth=1;fillColor=none;align=left;verticalAlign=middle;spacingTop=-1;spacingLeft=3;spacingRight=3;rotatable=0;labelPosition=right;points=[];portConstraint=eastwest;strokeColor=inherit;" vertex="1" parent="eBudwKJIuj9_EMLO4E53-61">
          <mxGeometry y="80" width="160" height="8" as="geometry" />
        </mxCell>
        <mxCell id="eBudwKJIuj9_EMLO4E53-64" value="&amp;lt;&amp;lt;entity&amp;gt;&amp;gt;&lt;div&gt;Quydinh&lt;/div&gt;" style="swimlane;fontStyle=1;align=center;verticalAlign=top;childLayout=stackLayout;horizontal=1;startSize=38;horizontalStack=0;resizeParent=1;resizeParentMax=0;resizeLast=0;collapsible=1;marginBottom=0;whiteSpace=wrap;html=1;rounded=0;strokeWidth=1;perimeterSpacing=4;" vertex="1" parent="1">
          <mxGeometry x="600" y="851" width="160" height="128" as="geometry">
            <mxRectangle x="320" y="240" width="100" height="30" as="alternateBounds" />
          </mxGeometry>
        </mxCell>
        <mxCell id="eBudwKJIuj9_EMLO4E53-65" value="+&amp;lt;&amp;lt;PK&amp;gt;&amp;gt;MaQD: string&lt;div&gt;-Ngaycapnhat: string&lt;/div&gt;&lt;div&gt;-Thoigianmuon: int&lt;/div&gt;&lt;div&gt;-Soluongmuon; int&lt;/div&gt;&lt;div&gt;-Thoigiandatmuon: int&lt;/div&gt;" style="text;strokeColor=none;fillColor=none;align=left;verticalAlign=top;spacingLeft=4;spacingRight=4;overflow=hidden;rotatable=0;points=[[0,0.5],[1,0.5]];portConstraint=eastwest;whiteSpace=wrap;html=1;" vertex="1" parent="eBudwKJIuj9_EMLO4E53-64">
          <mxGeometry y="38" width="160" height="82" as="geometry" />
        </mxCell>
        <mxCell id="eBudwKJIuj9_EMLO4E53-66" value="" style="line;strokeWidth=1;fillColor=none;align=left;verticalAlign=middle;spacingTop=-1;spacingLeft=3;spacingRight=3;rotatable=0;labelPosition=right;points=[];portConstraint=eastwest;strokeColor=inherit;" vertex="1" parent="eBudwKJIuj9_EMLO4E53-64">
          <mxGeometry y="120" width="160" height="8" as="geometry" />
        </mxCell>
        <mxCell id="eBudwKJIuj9_EMLO4E53-67" value="&amp;lt;&amp;lt;entity&amp;gt;&amp;gt;&lt;div&gt;Multimedia&lt;/div&gt;" style="swimlane;fontStyle=1;align=center;verticalAlign=top;childLayout=stackLayout;horizontal=1;startSize=38;horizontalStack=0;resizeParent=1;resizeParentMax=0;resizeLast=0;collapsible=1;marginBottom=0;whiteSpace=wrap;html=1;rounded=0;strokeWidth=1;perimeterSpacing=4;" vertex="1" parent="1">
          <mxGeometry x="40" y="524" width="160" height="98" as="geometry">
            <mxRectangle x="320" y="240" width="100" height="30" as="alternateBounds" />
          </mxGeometry>
        </mxCell>
        <mxCell id="eBudwKJIuj9_EMLO4E53-68" value="+&amp;lt;&amp;lt;PK&amp;gt;&amp;gt;MaM: string&lt;div&gt;-File: string&lt;/div&gt;&lt;div&gt;-MaLM: string&lt;/div&gt;" style="text;strokeColor=none;fillColor=none;align=left;verticalAlign=top;spacingLeft=4;spacingRight=4;overflow=hidden;rotatable=0;points=[[0,0.5],[1,0.5]];portConstraint=eastwest;whiteSpace=wrap;html=1;" vertex="1" parent="eBudwKJIuj9_EMLO4E53-67">
          <mxGeometry y="38" width="160" height="52" as="geometry" />
        </mxCell>
        <mxCell id="eBudwKJIuj9_EMLO4E53-69" value="" style="line;strokeWidth=1;fillColor=none;align=left;verticalAlign=middle;spacingTop=-1;spacingLeft=3;spacingRight=3;rotatable=0;labelPosition=right;points=[];portConstraint=eastwest;strokeColor=inherit;" vertex="1" parent="eBudwKJIuj9_EMLO4E53-67">
          <mxGeometry y="90" width="160" height="8" as="geometry" />
        </mxCell>
        <mxCell id="eBudwKJIuj9_EMLO4E53-109" value="duoc dat" style="edgeStyle=orthogonalEdgeStyle;rounded=0;orthogonalLoop=1;jettySize=auto;html=1;exitX=0.5;exitY=0;exitDx=0;exitDy=0;entryX=0.5;entryY=1;entryDx=0;entryDy=0;endArrow=none;endFill=0;" edge="1" parent="1" source="eBudwKJIuj9_EMLO4E53-70" target="eBudwKJIuj9_EMLO4E53-42">
          <mxGeometry x="0.0256" y="30" relative="1" as="geometry">
            <mxPoint as="offset" />
          </mxGeometry>
        </mxCell>
        <mxCell id="eBudwKJIuj9_EMLO4E53-70" value="&amp;lt;&amp;lt;entity&amp;gt;&amp;gt;&lt;div&gt;Tailieu&lt;/div&gt;" style="swimlane;fontStyle=1;align=center;verticalAlign=top;childLayout=stackLayout;horizontal=1;startSize=38;horizontalStack=0;resizeParent=1;resizeParentMax=0;resizeLast=0;collapsible=1;marginBottom=0;whiteSpace=wrap;html=1;rounded=0;strokeWidth=1;perimeterSpacing=4;" vertex="1" parent="1">
          <mxGeometry x="320" y="554" width="160" height="108" as="geometry">
            <mxRectangle x="320" y="240" width="100" height="30" as="alternateBounds" />
          </mxGeometry>
        </mxCell>
        <mxCell id="eBudwKJIuj9_EMLO4E53-71" value="+&amp;lt;&amp;lt;PK&amp;gt;&amp;gt;ISBN: string&lt;div&gt;-Tuade: string&lt;/div&gt;&lt;div&gt;-NamXB: string&lt;/div&gt;&lt;div&gt;-NhaXB; string&lt;/div&gt;" style="text;strokeColor=none;fillColor=none;align=left;verticalAlign=top;spacingLeft=4;spacingRight=4;overflow=hidden;rotatable=0;points=[[0,0.5],[1,0.5]];portConstraint=eastwest;whiteSpace=wrap;html=1;" vertex="1" parent="eBudwKJIuj9_EMLO4E53-70">
          <mxGeometry y="38" width="160" height="62" as="geometry" />
        </mxCell>
        <mxCell id="eBudwKJIuj9_EMLO4E53-72" value="" style="line;strokeWidth=1;fillColor=none;align=left;verticalAlign=middle;spacingTop=-1;spacingLeft=3;spacingRight=3;rotatable=0;labelPosition=right;points=[];portConstraint=eastwest;strokeColor=inherit;" vertex="1" parent="eBudwKJIuj9_EMLO4E53-70">
          <mxGeometry y="100" width="160" height="8" as="geometry" />
        </mxCell>
        <mxCell id="eBudwKJIuj9_EMLO4E53-82" value="isa" style="edgeStyle=orthogonalEdgeStyle;rounded=0;orthogonalLoop=1;jettySize=auto;html=1;entryX=1.001;entryY=0.932;entryDx=0;entryDy=0;entryPerimeter=0;exitX=0.494;exitY=0.05;exitDx=0;exitDy=0;exitPerimeter=0;endArrow=block;endFill=0;" edge="1" parent="1" source="eBudwKJIuj9_EMLO4E53-61" target="eBudwKJIuj9_EMLO4E53-71">
          <mxGeometry x="0.0515" y="10" relative="1" as="geometry">
            <Array as="points">
              <mxPoint x="679" y="650" />
              <mxPoint x="680" y="650" />
            </Array>
            <mxPoint as="offset" />
          </mxGeometry>
        </mxCell>
        <mxCell id="eBudwKJIuj9_EMLO4E53-99" value="hasa" style="endArrow=diamondThin;endFill=0;endSize=24;html=1;rounded=0;exitX=1;exitY=0.5;exitDx=0;exitDy=0;" edge="1" parent="1" source="eBudwKJIuj9_EMLO4E53-68">
          <mxGeometry x="0.0031" y="-11" width="160" relative="1" as="geometry">
            <mxPoint x="270" y="590" as="sourcePoint" />
            <mxPoint x="320" y="590" as="targetPoint" />
            <mxPoint as="offset" />
          </mxGeometry>
        </mxCell>
        <mxCell id="eBudwKJIuj9_EMLO4E53-100" value="1" style="edgeLabel;html=1;align=center;verticalAlign=middle;resizable=0;points=[];" vertex="1" connectable="0" parent="eBudwKJIuj9_EMLO4E53-99">
          <mxGeometry x="-0.7551" y="1" relative="1" as="geometry">
            <mxPoint x="-5" y="-7" as="offset" />
          </mxGeometry>
        </mxCell>
        <mxCell id="eBudwKJIuj9_EMLO4E53-101" value="hasa" style="endArrow=diamondThin;endFill=0;endSize=24;html=1;rounded=0;exitX=0;exitY=0.5;exitDx=0;exitDy=0;entryX=0.989;entryY=0.354;entryDx=0;entryDy=0;entryPerimeter=0;" edge="1" parent="1" source="eBudwKJIuj9_EMLO4E53-42" target="eBudwKJIuj9_EMLO4E53-44">
          <mxGeometry x="0.0031" y="-11" width="160" relative="1" as="geometry">
            <mxPoint x="260" y="490" as="sourcePoint" />
            <mxPoint x="380" y="492" as="targetPoint" />
            <mxPoint as="offset" />
          </mxGeometry>
        </mxCell>
        <mxCell id="eBudwKJIuj9_EMLO4E53-102" value="1...*" style="edgeLabel;html=1;align=center;verticalAlign=middle;resizable=0;points=[];" vertex="1" connectable="0" parent="eBudwKJIuj9_EMLO4E53-101">
          <mxGeometry x="-0.7551" y="1" relative="1" as="geometry">
            <mxPoint x="-4" y="7" as="offset" />
          </mxGeometry>
        </mxCell>
        <mxCell id="eBudwKJIuj9_EMLO4E53-103" value="datmuon" style="endArrow=none;endFill=0;endSize=12;html=1;rounded=0;exitX=0.97;exitY=0.034;exitDx=0;exitDy=0;exitPerimeter=0;" edge="1" parent="1" source="eBudwKJIuj9_EMLO4E53-43">
          <mxGeometry x="0.0607" y="-18" width="160" relative="1" as="geometry">
            <mxPoint x="250" y="360" as="sourcePoint" />
            <mxPoint x="320" y="350" as="targetPoint" />
            <mxPoint as="offset" />
          </mxGeometry>
        </mxCell>
        <mxCell id="eBudwKJIuj9_EMLO4E53-104" value="*" style="edgeLabel;html=1;align=center;verticalAlign=middle;resizable=0;points=[];" vertex="1" connectable="0" parent="eBudwKJIuj9_EMLO4E53-103">
          <mxGeometry x="-0.8198" y="1" relative="1" as="geometry">
            <mxPoint x="-9" y="-4" as="offset" />
          </mxGeometry>
        </mxCell>
        <mxCell id="eBudwKJIuj9_EMLO4E53-105" value="1" style="edgeLabel;html=1;align=center;verticalAlign=middle;resizable=0;points=[];" vertex="1" connectable="0" parent="eBudwKJIuj9_EMLO4E53-103">
          <mxGeometry x="0.8315" y="1" relative="1" as="geometry">
            <mxPoint x="11" y="7" as="offset" />
          </mxGeometry>
        </mxCell>
      </root>
    </mxGraphModel>
  </diagram>
</mxfile>
